<svg fill="#000000" xmlns="http://www.w3.org/2000/svg"  viewBox="0 0 50 50" width="250px" height="250px"><path d="M 8 3.0117188 C 6.3243556 3.0117186 4.8517223 3.4556501 3.7636719 4.3105469 C 2.6756214 5.1654436 2.0117188 6.4640138 2.0117188 7.9003906 C 2.0117188 10.773144 4.6048 12.988281 8 12.988281 C 9.7412258 12.988281 11.234704 12.477413 12.304688 11.5625 C 13.374671 10.647587 13.988281 9.3224486 13.988281 7.9003906 A 0.98809878 0.98809878 0 0 0 13.986328 7.8554688 C 13.861647 5.1114423 11.373244 3.0117188 8 3.0117188 z M 8 4.9882812 C 10.612452 4.9882814 11.919564 6.27684 12.007812 7.9199219 C 12.002386 8.7882363 11.669223 9.5069667 11.019531 10.0625 C 10.364515 10.622587 9.3587742 11.011719 8 11.011719 C 5.3952 11.011719 3.9882813 9.627637 3.9882812 7.9003906 C 3.9882812 7.0367674 4.3243786 6.3853376 4.9863281 5.8652344 C 5.6482777 5.3451311 6.6756444 4.9882813 8 4.9882812 z M 3 15 A 1.0001 1.0001 0 0 0 2 16 L 2 45 A 1.0001 1.0001 0 0 0 3 46 L 13 46 A 1.0001 1.0001 0 0 0 14 45 L 14 35.699219 L 14 16 A 1.0001 1.0001 0 0 0 13 15 L 3 15 z M 18 15 A 1.0001 1.0001 0 0 0 17 16 L 17 45.099609 A 1.0001 1.0001 0 0 0 18 46.099609 L 28 46.099609 A 1.0001 1.0001 0 0 0 29 45.099609 L 29 29.099609 L 29 28.800781 L 29 28.5 C 29 26.533333 30.533333 25 32.5 25 C 34.466667 25 36 26.533333 36 28.5 L 36 45 A 1.0001 1.0001 0 0 0 37 46 L 47 46 A 1.0001 1.0001 0 0 0 48 45 L 48 28 C 48 23.855907 46.781684 20.586343 44.736328 18.361328 C 42.690972 16.136313 39.844829 15 36.800781 15 C 32.892578 15 30.522592 16.421774 29 17.583984 L 29 16 A 1.0001 1.0001 0 0 0 28 15 L 18 15 z M 4 17 L 12 17 L 12 35.699219 L 12 44 L 4 44 L 4 17 z M 19 17 L 27 17 L 27 19.599609 A 1.0001 1.0001 0 0 0 28.736328 20.275391 C 28.736328 20.275391 31.737145 17 36.800781 17 C 39.356734 17 41.609028 17.914859 43.263672 19.714844 C 44.918316 21.514828 46 24.244093 46 28 L 46 44 L 38 44 L 38 28.5 A 1.0001 1.0001 0 0 0 37.916016 28.089844 C 37.6949 25.257915 35.387842 23 32.5 23 C 29.466667 23 27 25.466667 27 28.5 L 27 28.800781 L 27 29.099609 L 27 44.099609 L 19 44.099609 L 19 17 z"/></svg>